<svg width="215" height="47" viewBox="0 0 215 47" fill="none" xmlns="http://www.w3.org/2000/svg">
<path d="M3.07656 1.875H8.32656L18.1937 28.1953L28.0375 1.875H33.2875L20.2562 36H16.0844L3.07656 1.875ZM0.685936 1.875H5.67812L6.54531 24.6562V36H0.685936V1.875ZM30.6859 1.875H35.7016V36H29.8187V24.6562L30.6859 1.875ZM41.1953 23.6016V23.0625C41.1953 21.2344 41.4609 19.5391 41.9922 17.9766C42.5234 16.3984 43.2891 15.0312 44.2891 13.875C45.3047 12.7031 46.5391 11.7969 47.9922 11.1562C49.4609 10.5 51.1172 10.1719 52.9609 10.1719C54.8203 10.1719 56.4766 10.5 57.9297 11.1562C59.3984 11.7969 60.6406 12.7031 61.6562 13.875C62.6719 15.0312 63.4453 16.3984 63.9766 17.9766C64.5078 19.5391 64.7734 21.2344 64.7734 23.0625V23.6016C64.7734 25.4297 64.5078 27.125 63.9766 28.6875C63.4453 30.25 62.6719 31.6172 61.6562 32.7891C60.6406 33.9453 59.4062 34.8516 57.9531 35.5078C56.5 36.1484 54.8516 36.4688 53.0078 36.4688C51.1484 36.4688 49.4844 36.1484 48.0156 35.5078C46.5625 34.8516 45.3281 33.9453 44.3125 32.7891C43.2969 31.6172 42.5234 30.25 41.9922 28.6875C41.4609 27.125 41.1953 25.4297 41.1953 23.6016ZM46.8438 23.0625V23.6016C46.8438 24.7422 46.9609 25.8203 47.1953 26.8359C47.4297 27.8516 47.7969 28.7422 48.2969 29.5078C48.7969 30.2734 49.4375 30.875 50.2188 31.3125C51 31.75 51.9297 31.9688 53.0078 31.9688C54.0547 31.9688 54.9609 31.75 55.7266 31.3125C56.5078 30.875 57.1484 30.2734 57.6484 29.5078C58.1484 28.7422 58.5156 27.8516 58.75 26.8359C59 25.8203 59.125 24.7422 59.125 23.6016V23.0625C59.125 21.9375 59 20.875 58.75 19.875C58.5156 18.8594 58.1406 17.9609 57.625 17.1797C57.125 16.3984 56.4844 15.7891 55.7031 15.3516C54.9375 14.8984 54.0234 14.6719 52.9609 14.6719C51.8984 14.6719 50.9766 14.8984 50.1953 15.3516C49.4297 15.7891 48.7969 16.3984 48.2969 17.1797C47.7969 17.9609 47.4297 18.8594 47.1953 19.875C46.9609 20.875 46.8438 21.9375 46.8438 23.0625ZM75.2594 16.0547V36H69.6109V10.6406H74.9313L75.2594 16.0547ZM74.2516 22.3828L72.4234 22.3594C72.4391 20.5625 72.6891 18.9141 73.1734 17.4141C73.6734 15.9141 74.3609 14.625 75.2359 13.5469C76.1266 12.4688 77.1891 11.6406 78.4234 11.0625C79.6578 10.4688 81.0328 10.1719 82.5484 10.1719C83.7672 10.1719 84.8688 10.3437 85.8531 10.6875C86.8531 11.0156 87.7047 11.5547 88.4078 12.3047C89.1266 13.0547 89.6734 14.0312 90.0484 15.2344C90.4234 16.4219 90.6109 17.8828 90.6109 19.6172V36H84.9391V19.5938C84.9391 18.375 84.7594 17.4141 84.4 16.7109C84.0563 15.9922 83.5484 15.4844 82.8766 15.1875C82.2203 14.875 81.4 14.7188 80.4156 14.7188C79.4469 14.7188 78.5797 14.9219 77.8141 15.3281C77.0484 15.7344 76.4 16.2891 75.8688 16.9922C75.3531 17.6953 74.9547 18.5078 74.6734 19.4297C74.3922 20.3516 74.2516 21.3359 74.2516 22.3828ZM95.4484 23.6016V23.0625C95.4484 21.2344 95.7141 19.5391 96.2453 17.9766C96.7766 16.3984 97.5422 15.0312 98.5422 13.875C99.5578 12.7031 100.792 11.7969 102.245 11.1562C103.714 10.5 105.37 10.1719 107.214 10.1719C109.073 10.1719 110.73 10.5 112.183 11.1562C113.652 11.7969 114.894 12.7031 115.909 13.875C116.925 15.0312 117.698 16.3984 118.23 17.9766C118.761 19.5391 119.027 21.2344 119.027 23.0625V23.6016C119.027 25.4297 118.761 27.125 118.23 28.6875C117.698 30.25 116.925 31.6172 115.909 32.7891C114.894 33.9453 113.659 34.8516 112.206 35.5078C110.753 36.1484 109.105 36.4688 107.261 36.4688C105.402 36.4688 103.737 36.1484 102.269 35.5078C100.816 34.8516 99.5812 33.9453 98.5656 32.7891C97.55 31.6172 96.7766 30.25 96.2453 28.6875C95.7141 27.125 95.4484 25.4297 95.4484 23.6016ZM101.097 23.0625V23.6016C101.097 24.7422 101.214 25.8203 101.448 26.8359C101.683 27.8516 102.05 28.7422 102.55 29.5078C103.05 30.2734 103.691 30.875 104.472 31.3125C105.253 31.75 106.183 31.9688 107.261 31.9688C108.308 31.9688 109.214 31.75 109.98 31.3125C110.761 30.875 111.402 30.2734 111.902 29.5078C112.402 28.7422 112.769 27.8516 113.003 26.8359C113.253 25.8203 113.378 24.7422 113.378 23.6016V23.0625C113.378 21.9375 113.253 20.875 113.003 19.875C112.769 18.8594 112.394 17.9609 111.878 17.1797C111.378 16.3984 110.737 15.7891 109.956 15.3516C109.191 14.8984 108.277 14.6719 107.214 14.6719C106.152 14.6719 105.23 14.8984 104.448 15.3516C103.683 15.7891 103.05 16.3984 102.55 17.1797C102.05 17.9609 101.683 18.8594 101.448 19.875C101.214 20.875 101.097 21.9375 101.097 23.0625ZM137.434 23.2734H128.552V18.6094H137.434C138.981 18.6094 140.231 18.3594 141.184 17.8594C142.137 17.3594 142.833 16.6719 143.27 15.7969C143.723 14.9062 143.95 13.8906 143.95 12.75C143.95 11.6719 143.723 10.6641 143.27 9.72656C142.833 8.77344 142.137 8.00781 141.184 7.42969C140.231 6.85156 138.981 6.5625 137.434 6.5625H130.356V36H124.473V1.875H137.434C140.075 1.875 142.317 2.34375 144.161 3.28125C146.02 4.20312 147.434 5.48438 148.403 7.125C149.372 8.75 149.856 10.6094 149.856 12.7031C149.856 14.9062 149.372 16.7969 148.403 18.375C147.434 19.9531 146.02 21.1641 144.161 22.0078C142.317 22.8516 140.075 23.2734 137.434 23.2734ZM153.311 23.6016V23.0625C153.311 21.2344 153.577 19.5391 154.108 17.9766C154.639 16.3984 155.405 15.0312 156.405 13.875C157.42 12.7031 158.655 11.7969 160.108 11.1562C161.577 10.5 163.233 10.1719 165.077 10.1719C166.936 10.1719 168.592 10.5 170.045 11.1562C171.514 11.7969 172.756 12.7031 173.772 13.875C174.788 15.0312 175.561 16.3984 176.092 17.9766C176.623 19.5391 176.889 21.2344 176.889 23.0625V23.6016C176.889 25.4297 176.623 27.125 176.092 28.6875C175.561 30.25 174.788 31.6172 173.772 32.7891C172.756 33.9453 171.522 34.8516 170.069 35.5078C168.616 36.1484 166.967 36.4688 165.123 36.4688C163.264 36.4688 161.6 36.1484 160.131 35.5078C158.678 34.8516 157.444 33.9453 156.428 32.7891C155.413 31.6172 154.639 30.25 154.108 28.6875C153.577 27.125 153.311 25.4297 153.311 23.6016ZM158.959 23.0625V23.6016C158.959 24.7422 159.077 25.8203 159.311 26.8359C159.545 27.8516 159.913 28.7422 160.413 29.5078C160.913 30.2734 161.553 30.875 162.334 31.3125C163.116 31.75 164.045 31.9688 165.123 31.9688C166.17 31.9688 167.077 31.75 167.842 31.3125C168.623 30.875 169.264 30.2734 169.764 29.5078C170.264 28.7422 170.631 27.8516 170.866 26.8359C171.116 25.8203 171.241 24.7422 171.241 23.6016V23.0625C171.241 21.9375 171.116 20.875 170.866 19.875C170.631 18.8594 170.256 17.9609 169.741 17.1797C169.241 16.3984 168.6 15.7891 167.819 15.3516C167.053 14.8984 166.139 14.6719 165.077 14.6719C164.014 14.6719 163.092 14.8984 162.311 15.3516C161.545 15.7891 160.913 16.3984 160.413 17.1797C159.913 17.9609 159.545 18.8594 159.311 19.875C159.077 20.875 158.959 21.9375 158.959 23.0625ZM187.82 0V36H182.148V0H187.82ZM201.517 33.2344L208.408 10.6406H214.455L204.283 39.8672C204.048 40.4922 203.744 41.1719 203.369 41.9062C202.994 42.6406 202.502 43.3359 201.892 43.9922C201.298 44.6641 200.556 45.2031 199.666 45.6094C198.775 46.0312 197.697 46.2422 196.431 46.2422C195.931 46.2422 195.447 46.1953 194.978 46.1016C194.525 46.0234 194.095 45.9375 193.689 45.8438L193.666 41.5312C193.822 41.5469 194.009 41.5625 194.228 41.5781C194.462 41.5938 194.65 41.6016 194.791 41.6016C195.728 41.6016 196.509 41.4844 197.134 41.25C197.759 41.0312 198.267 40.6719 198.658 40.1719C199.064 39.6719 199.408 39 199.689 38.1562L201.517 33.2344ZM197.627 10.6406L203.65 29.625L204.658 35.5781L200.744 36.5859L191.533 10.6406H197.627Z" fill="white"/>
</svg>
